<?xml version="1.0" standalone="no"?>
<!DOCTYPE svg PUBLIC "-//W3C//DTD SVG 20010904//EN"
 "http://www.w3.org/TR/2001/REC-SVG-20010904/DTD/svg10.dtd">
<svg version="1.0" xmlns="http://www.w3.org/2000/svg"
 width="640.000000pt" height="640.000000pt" viewBox="0 0 640.000000 640.000000"
 preserveAspectRatio="xMidYMid meet">
<metadata>
Created by potrace 1.14, written by Peter Selinger 2001-2017
</metadata>
<g transform="translate(0.000000,640.000000) scale(0.100000,-0.100000)"
fill="#000000" stroke="none">
<path d="M0 3200 l0 -3200 3200 0 3200 0 0 3200 0 3200 -3200 0 -3200 0 0
-3200z m3795 1876 c76 -45 124 -149 112 -239 -4 -23 -224 -804 -490 -1734
-384 -1342 -490 -1701 -512 -1733 -34 -49 -76 -76 -142 -91 -145 -34 -275 61
-289 212 -5 49 37 203 475 1739 265 927 489 1705 497 1729 22 57 85 117 143
136 63 20 152 12 206 -19z m-1846 -822 c68 -20 125 -78 146 -147 19 -64 19
-90 0 -158 -15 -52 -30 -68 -372 -406 l-357 -353 357 -352 c342 -339 357 -355
372 -407 19 -68 19 -94 0 -158 -41 -137 -202 -200 -340 -133 -26 13 -195 175
-487 467 -441 443 -447 449 -463 507 -20 68 -15 129 15 191 13 26 174 194 467
487 413 411 452 447 498 461 65 20 100 20 164 1z m2674 -13 c29 -14 185 -164
489 -468 427 -429 447 -450 462 -502 9 -30 16 -66 16 -81 0 -15 -7 -51 -16
-81 -15 -52 -35 -73 -462 -502 -293 -294 -461 -454 -487 -467 -140 -68 -300
-4 -341 136 -19 67 -14 127 17 191 15 30 127 147 367 383 l347 340 -347 340
c-240 236 -352 353 -367 383 -86 178 36 368 227 353 29 -3 72 -14 95 -25z"/>
</g>
</svg>
